<svg viewBox="0 0 1474 268" fill="none" xmlns="http://www.w3.org/2000/svg" width="100%" height="100%" preserveAspectRatio="xMidYMid meet">
<path d="M78.48 267.68C47.04 267.68 21.12 256.76 0.72 234.92L33.48 205.04C47.16 220.4 61.8 228.08 77.4 228.08C85.8 228.08 92.16 226.28 96.48 222.68C101.04 218.84 103.32 214.16 103.32 208.64C103.32 205.28 102.48 202.4 100.8 200C99.36 197.6 96.12 195.32 91.08 193.16C86.28 191 78.96 188.84 69.12 186.68C52.32 182.6 39.84 177.56 31.68 171.56C23.52 165.56 18.12 158.84 15.48 151.4C12.84 143.96 11.52 136.28 11.52 128.36C11.52 112.04 17.64 98.48 29.88 87.68C42.36 76.64 59.52 71.12 81.36 71.12C96.48 71.12 109.44 73.4 120.24 77.96C131.04 82.52 141.24 91.04 150.84 103.52L115.56 130.52C111 123.32 105.84 118.16 100.08 115.04C94.56 111.92 88.68 110.36 82.44 110.36C75.72 110.36 70.08 111.68 65.52 114.32C61.2 116.96 59.04 121.16 59.04 126.92C59.04 130.04 60.48 133.16 63.36 136.28C66.24 139.16 73.2 142.04 84.24 144.92C102.48 149.48 116.4 154.88 126 161.12C135.6 167.12 142.2 173.96 145.8 181.64C149.4 189.32 151.2 197.84 151.2 207.2C151.2 218.72 147.96 229.04 141.48 238.16C135.24 247.28 126.6 254.48 115.56 259.76C104.76 265.04 92.4 267.68 78.48 267.68ZM223.498 263C205.018 263 190.858 258.44 181.018 249.32C171.178 240.2 166.258 225.44 166.258 205.04V117.2H139.978V75.8H166.258V38L214.858 32.96V75.8H254.458V117.2H214.858V202.52C214.858 214.04 219.898 219.8 229.978 219.8H250.138V263H223.498ZM343.901 267.68C324.701 267.68 307.541 263.24 292.421 254.36C277.301 245.48 265.421 233.72 256.781 219.08C248.381 204.2 244.181 187.76 244.181 169.76C244.181 151.76 248.381 135.32 256.781 120.44C265.421 105.56 277.301 93.68 292.421 84.8C307.541 75.92 324.701 71.48 343.901 71.48C363.341 71.48 380.501 75.92 395.381 84.8C410.501 93.68 422.261 105.56 430.661 120.44C439.301 135.32 443.621 151.76 443.621 169.76C443.621 187.76 439.301 204.2 430.661 219.08C422.261 233.72 410.501 245.48 395.381 254.36C380.501 263.24 363.341 267.68 343.901 267.68ZM343.901 223.4C354.221 223.4 363.221 221 370.901 216.2C378.581 211.16 384.461 204.56 388.541 196.4C392.861 188.24 395.021 179.36 395.021 169.76C395.021 159.92 392.861 150.92 388.541 142.76C384.461 134.6 378.581 128.12 370.901 123.32C363.221 118.28 354.221 115.76 343.901 115.76C333.581 115.76 324.581 118.28 316.901 123.32C309.221 128.12 303.221 134.6 298.901 142.76C294.821 150.92 292.781 159.92 292.781 169.76C292.781 179.36 294.821 188.24 298.901 196.4C303.221 204.56 309.221 211.16 316.901 216.2C324.581 221 333.581 223.4 343.901 223.4ZM450.731 263V0.199993H499.331V151.4L569.531 75.8H638.651L550.451 162.92L639.011 263H574.571L499.331 174.08V263H450.731ZM703.159 267.68C683.959 267.68 667.039 263.24 652.399 254.36C637.759 245.48 626.359 233.72 618.199 219.08C610.279 204.2 606.319 187.76 606.319 169.76C606.319 151.76 610.519 135.32 618.919 120.44C627.319 105.32 638.719 93.32 653.119 84.44C667.759 75.56 684.439 71.12 703.159 71.12C721.879 71.12 738.319 75.56 752.479 84.44C766.879 93.32 778.039 105.32 785.959 120.44C794.119 135.32 798.199 151.76 798.199 169.76C798.199 172.4 798.079 175.16 797.839 178.04C797.599 180.92 797.239 183.92 796.759 187.04H656.719C659.359 198.08 664.639 207.08 672.559 214.04C680.719 221 690.919 224.48 703.159 224.48C713.719 224.48 722.839 222.08 730.519 217.28C738.439 212.48 744.559 206.48 748.879 199.28L786.679 227.72C779.239 239.48 768.079 249.08 753.199 256.52C738.319 263.96 721.639 267.68 703.159 267.68ZM702.439 112.88C690.919 112.88 681.079 116.36 672.919 123.32C664.759 130.28 659.359 139.4 656.719 150.68H749.239C746.599 140.36 741.079 131.48 732.679 124.04C724.519 116.6 714.439 112.88 702.439 112.88ZM891.953 267.68C878.513 267.68 865.913 265.16 854.153 260.12C842.633 255.08 832.433 248.12 823.553 239.24C814.673 230.12 807.713 219.68 802.673 207.92C797.873 195.92 795.473 183.08 795.473 169.4C795.473 151.16 799.673 134.72 808.073 120.08C816.713 105.2 828.473 93.32 843.353 84.44C858.473 75.56 875.513 71.12 894.473 71.12C911.513 70.88 926.753 73.88 940.193 80.12C953.633 86.36 964.313 95 972.233 106.04L934.793 136.64C930.473 130.16 924.833 125 917.873 121.16C911.153 117.32 903.593 115.4 895.193 115.4C884.873 115.4 875.873 117.92 868.193 122.96C860.513 127.76 854.513 134.24 850.193 142.4C846.113 150.56 844.073 159.56 844.073 169.4C844.073 179 846.233 188 850.553 196.4C855.113 204.56 861.233 211.16 868.913 216.2C876.833 221 885.953 223.4 896.273 223.4C905.633 223.4 913.553 221.36 920.033 217.28C926.513 212.96 932.153 207.56 936.953 201.08L972.233 231.68C963.353 242.96 952.313 251.84 939.113 258.32C926.153 264.56 910.433 267.68 891.953 267.68ZM1050.43 267.68C1033.39 267.68 1017.79 263.36 1003.63 254.72C989.709 245.84 978.549 234.08 970.149 219.44C961.989 204.56 957.909 188.12 957.909 170.12C957.909 156.68 960.309 144.08 965.109 132.32C969.909 120.32 976.509 109.88 984.909 101C993.309 91.88 1003.03 84.8 1014.07 79.76C1025.35 74.48 1037.47 71.84 1050.43 71.84C1066.75 71.84 1079.47 74.96 1088.59 81.2C1097.71 87.2 1104.79 95.24 1109.83 105.32V75.8H1158.07V263H1110.91V232.4C1105.87 242.96 1098.67 251.48 1089.31 257.96C1080.19 264.44 1067.23 267.68 1050.43 267.68ZM1058.35 223.76C1069.15 223.76 1078.39 221.36 1086.07 216.56C1093.99 211.52 1100.11 204.92 1104.43 196.76C1108.75 188.6 1110.91 179.72 1110.91 170.12C1110.91 160.28 1108.75 151.28 1104.43 143.12C1100.11 134.96 1093.99 128.36 1086.07 123.32C1078.39 118.28 1069.15 115.76 1058.35 115.76C1048.03 115.76 1038.91 118.28 1030.99 123.32C1023.31 128.12 1017.31 134.6 1012.99 142.76C1008.67 150.92 1006.51 159.92 1006.51 169.76C1006.51 179.12 1008.67 188 1012.99 196.4C1017.31 204.56 1023.31 211.16 1030.99 216.2C1038.91 221.24 1048.03 223.76 1058.35 223.76ZM1172.55 263V75.8H1220.43V103.16C1230.27 82.04 1249.35 71.48 1277.67 71.48C1290.87 71.48 1302.75 74.6 1313.31 80.84C1323.87 86.84 1332.27 95.48 1338.51 106.76C1344.75 95.48 1352.67 86.84 1362.27 80.84C1372.11 74.6 1385.31 71.48 1401.87 71.48C1415.31 71.48 1427.43 74.6 1438.23 80.84C1449.03 87.08 1457.55 95.96 1463.79 107.48C1470.03 119 1473.15 132.68 1473.15 148.52V263H1424.55V160.4C1424.55 144.08 1421.07 132.32 1414.11 125.12C1407.15 117.68 1398.15 113.96 1387.11 113.96C1375.83 113.96 1366.59 117.2 1359.39 123.68C1352.43 130.16 1348.95 142.4 1348.95 160.4V263H1300.35V160.4C1300.35 144.08 1296.63 132.32 1289.19 125.12C1281.75 117.68 1272.03 113.96 1260.03 113.96C1249.71 113.96 1240.59 117.68 1232.67 125.12C1224.99 132.32 1221.15 144.08 1221.15 160.4V263H1172.55Z" fill="white"/>
</svg>
