<svg width="1616" height="268" viewBox="0 0 1616 268" fill="none" xmlns="http://www.w3.org/2000/svg">
<path d="M2.68221e-07 263V11H84.96C113.28 11 135.48 17.72 151.56 31.16C167.88 44.36 176.04 64.16 176.04 90.56C176.04 117.2 167.88 137.36 151.56 151.04C135.48 164.72 113.28 171.56 84.96 171.56H50.4V263H2.68221e-07ZM50.4 126.2H82.08C95.76 126.2 106.32 123.32 113.76 117.56C121.2 111.8 124.92 102.92 124.92 90.92C124.92 78.92 121.2 70.16 113.76 64.64C106.32 58.88 95.76 56 82.08 56H50.4V126.2ZM263.661 267.68C244.461 267.68 227.301 263.24 212.181 254.36C197.061 245.48 185.181 233.72 176.541 219.08C168.141 204.2 163.941 187.76 163.941 169.76C163.941 151.76 168.141 135.32 176.541 120.44C185.181 105.56 197.061 93.68 212.181 84.8C227.301 75.92 244.461 71.48 263.661 71.48C283.101 71.48 300.261 75.92 315.141 84.8C330.261 93.68 342.021 105.56 350.421 120.44C359.061 135.32 363.381 151.76 363.381 169.76C363.381 187.76 359.061 204.2 350.421 219.08C342.021 233.72 330.261 245.48 315.141 254.36C300.261 263.24 283.101 267.68 263.661 267.68ZM263.661 223.4C273.981 223.4 282.981 221 290.661 216.2C298.341 211.16 304.221 204.56 308.301 196.4C312.621 188.24 314.781 179.36 314.781 169.76C314.781 159.92 312.621 150.92 308.301 142.76C304.221 134.6 298.341 128.12 290.661 123.32C282.981 118.28 273.981 115.76 263.661 115.76C253.341 115.76 244.341 118.28 236.661 123.32C228.981 128.12 222.981 134.6 218.661 142.76C214.581 150.92 212.541 159.92 212.541 169.76C212.541 179.36 214.581 188.24 218.661 196.4C222.981 204.56 228.981 211.16 236.661 216.2C244.341 221 253.341 223.4 263.661 223.4ZM370.491 263V75.8H417.651V111.44C420.771 98 427.131 87.8 436.731 80.84C446.331 73.64 459.291 70.52 475.611 71.48V117.2H468.771C454.851 117.2 443.091 121.64 433.491 130.52C423.891 139.4 419.091 151.64 419.091 167.24V263H370.491ZM552.518 263C534.038 263 519.878 258.44 510.038 249.32C500.198 240.2 495.278 225.44 495.278 205.04V117.2H468.998V75.8H495.278V38L543.878 32.96V75.8H583.478V117.2H543.878V202.52C543.878 214.04 548.918 219.8 558.998 219.8H579.158V263H552.518ZM654.803 267.32C641.363 267.32 629.243 264.2 618.443 257.96C607.643 251.72 599.123 242.84 592.883 231.32C586.643 219.56 583.523 205.88 583.523 190.28V75.8H632.123V178.4C632.123 194.48 635.363 206.24 641.843 213.68C648.323 221.12 657.563 224.84 669.563 224.84C679.883 224.84 688.883 221.12 696.563 213.68C704.483 206.24 708.443 194.48 708.443 178.4V75.8H757.043V263H709.883V234.92C705.323 245.72 698.603 253.88 689.723 259.4C681.083 264.68 669.443 267.32 654.803 267.32ZM784.994 263V117.2H758.714V75.8H784.994V63.2C784.994 44.24 790.634 29 801.914 17.48C813.194 5.95999 828.314 0.199993 847.274 0.199993H867.434V41.6H854.834C840.674 41.6 833.594 49.04 833.594 63.92V75.8H871.754V117.2H833.594V263H784.994ZM957.012 267.68C937.812 267.68 920.652 263.24 905.532 254.36C890.412 245.48 878.532 233.72 869.892 219.08C861.492 204.2 857.292 187.76 857.292 169.76C857.292 151.76 861.492 135.32 869.892 120.44C878.532 105.56 890.412 93.68 905.532 84.8C920.652 75.92 937.812 71.48 957.012 71.48C976.452 71.48 993.612 75.92 1008.49 84.8C1023.61 93.68 1035.37 105.56 1043.77 120.44C1052.41 135.32 1056.73 151.76 1056.73 169.76C1056.73 187.76 1052.41 204.2 1043.77 219.08C1035.37 233.72 1023.61 245.48 1008.49 254.36C993.612 263.24 976.452 267.68 957.012 267.68ZM957.012 223.4C967.332 223.4 976.332 221 984.012 216.2C991.692 211.16 997.572 204.56 1001.65 196.4C1005.97 188.24 1008.13 179.36 1008.13 169.76C1008.13 159.92 1005.97 150.92 1001.65 142.76C997.572 134.6 991.692 128.12 984.012 123.32C976.332 118.28 967.332 115.76 957.012 115.76C946.692 115.76 937.692 118.28 930.012 123.32C922.332 128.12 916.332 134.6 912.012 142.76C907.932 150.92 905.892 159.92 905.892 169.76C905.892 179.36 907.932 188.24 912.012 196.4C916.332 204.56 922.332 211.16 930.012 216.2C937.692 221 946.692 223.4 957.012 223.4ZM1063.84 263V75.8H1111V111.44C1114.12 98 1120.48 87.8 1130.08 80.84C1139.68 73.64 1152.64 70.52 1168.96 71.48V117.2H1162.12C1148.2 117.2 1136.44 121.64 1126.84 130.52C1117.24 139.4 1112.44 151.64 1112.44 167.24V263H1063.84ZM1170.73 263V75.8H1218.61V103.16C1228.45 82.04 1247.53 71.48 1275.85 71.48C1289.29 71.48 1301.41 74.6 1312.21 80.84C1323.01 87.08 1331.53 95.96 1337.77 107.48C1344.01 119 1347.13 132.68 1347.13 148.52V263H1298.53V160.4C1298.53 144.08 1294.81 132.32 1287.37 125.12C1279.93 117.68 1270.21 113.96 1258.21 113.96C1247.89 113.96 1238.77 117.68 1230.85 125.12C1223.17 132.32 1219.33 144.08 1219.33 160.4V263H1170.73ZM1384.01 60.32C1375.85 60.32 1368.89 57.56 1363.13 52.04C1357.61 46.28 1354.85 39.44 1354.85 31.52C1354.85 23.84 1357.61 17.24 1363.13 11.72C1368.89 5.95998 1375.85 3.07998 1384.01 3.07998C1392.41 3.07998 1399.37 5.95998 1404.89 11.72C1410.41 17.24 1413.17 23.84 1413.17 31.52C1413.17 39.68 1410.41 46.52 1404.89 52.04C1399.37 57.56 1392.41 60.32 1384.01 60.32ZM1359.89 263V75.8H1408.49V263H1359.89ZM1508.15 267.68C1491.11 267.68 1475.51 263.36 1461.35 254.72C1447.43 245.84 1436.27 234.08 1427.87 219.44C1419.71 204.56 1415.63 188.12 1415.63 170.12C1415.63 156.68 1418.03 144.08 1422.83 132.32C1427.63 120.32 1434.23 109.88 1442.63 101C1451.03 91.88 1460.75 84.8 1471.79 79.76C1483.07 74.48 1495.19 71.84 1508.15 71.84C1524.47 71.84 1537.19 74.96 1546.31 81.2C1555.43 87.2 1562.51 95.24 1567.55 105.32V75.8H1615.79V263H1568.63V232.4C1563.59 242.96 1556.39 251.48 1547.03 257.96C1537.91 264.44 1524.95 267.68 1508.15 267.68ZM1516.07 223.76C1526.87 223.76 1536.11 221.36 1543.79 216.56C1551.71 211.52 1557.83 204.92 1562.15 196.76C1566.47 188.6 1568.63 179.72 1568.63 170.12C1568.63 160.28 1566.47 151.28 1562.15 143.12C1557.83 134.96 1551.71 128.36 1543.79 123.32C1536.11 118.28 1526.87 115.76 1516.07 115.76C1505.75 115.76 1496.63 118.28 1488.71 123.32C1481.03 128.12 1475.03 134.6 1470.71 142.76C1466.39 150.92 1464.23 159.92 1464.23 169.76C1464.23 179.12 1466.39 188 1470.71 196.4C1475.03 204.56 1481.03 211.16 1488.71 216.2C1496.63 221.24 1505.75 223.76 1516.07 223.76Z" fill="black"/>
</svg>
