<svg width="252" height="248" viewBox="0 0 252 248" fill="none" xmlns="http://www.w3.org/2000/svg">
<path d="M104.667 9.1668C95.2 11.3001 89.4667 13.9668 81.8667 19.4335C70.5334 27.5668 48.4 54.1001 50.9334 56.6335C51.6 57.3001 56.1334 57.3001 61.6 56.6335C91.2 52.9001 125.333 65.9668 156.933 93.0335C179.2 111.967 193.867 136.1 198.133 160.233C199.067 165.567 200.267 170.233 200.8 170.633C202.133 171.433 214.8 155.567 221.067 145.167C228.8 132.367 231.467 123.3 231.467 109.3C231.467 81.3001 216.133 55.9668 184.933 32.7668C156.4 11.7001 128.933 3.5668 104.667 9.1668Z" fill="black"/>
<path d="M128.667 175.3C108.533 178.634 92.2667 182.234 69.3334 188.767C45.6 195.434 17.4667 206.234 13.0667 210.234C9.33336 213.567 9.33336 215.3 12.6667 226.234C16.5334 238.634 17.7334 239.567 28.5334 238.5C37.3334 237.7 54.5334 234.634 63.3334 232.5C65.8667 231.834 72.2667 230.367 77.3334 229.034C82.5334 227.834 88.1334 226.367 90 225.834C91.8667 225.167 96.9334 223.7 101.333 222.5C115.733 218.367 144.8 207.434 150.267 204.1C154.933 201.167 152.4 183.3 146.267 176.1C144.133 173.567 140.267 173.434 128.667 175.3Z" fill="black"/>
</svg>
