<svg width="251" height="233" viewBox="0 0 251 233" fill="none" xmlns="http://www.w3.org/2000/svg">
<path d="M72.6667 20.9668C59.8667 22.8334 47.7334 27.9001 40.6667 34.4334C31.4667 42.8334 16 62.9668 16 66.3001C16 67.1001 20 70.1667 25.0667 72.9667C39.2 81.1001 54.8 97.7667 66.8 117.5C72.4 126.7 79.6 138.833 82.6667 144.433C88.4 155.233 93.2 160.167 97.6 160.167C100.4 160.167 105.733 161.767 130.667 169.767C158.933 178.967 172.933 186.967 187.6 202.433C195.067 210.3 195.6 210.433 201.2 203.767C203.067 201.633 205.2 199.233 206 198.3C209.067 195.233 218.533 181.9 222.133 175.5C225.867 169.1 226 168.3 225.867 151.5C225.733 136.3 225.333 132.833 222.133 123.5C213.333 97.6334 198.8 73.6334 182 56.8334C173.333 48.0334 168.933 44.8334 158.667 39.7668C145.467 33.2334 122.4 25.5001 108.667 23.1001C99.3334 21.3668 78.4 20.1668 72.6667 20.9668Z" fill="black"/>
</svg>
