<svg width="251" height="248" viewBox="0 0 251 248" fill="none" xmlns="http://www.w3.org/2000/svg">
<path d="M38.8 12.3667C31.8667 16.7667 25.8667 21.0334 25.3333 22.1C24.5333 23.7 25.7333 40.6334 29.3333 79.8334C30.5333 93.1667 33.2 126.233 35.3333 153.167C35.7333 159.033 36.9333 165.167 38 166.767C39.4667 168.9 66.6667 183.433 82 189.967C97.4667 196.767 131.067 206.5 133.467 205.033C136.8 203.033 128.8 156.9 120.4 129.167C116.8 117.433 110.667 99.1667 107.867 92.1C105.2 85.1667 104.267 83.0334 98.5333 70.5C87.6 46.6334 58.6667 4.36669 53.3333 4.50003C52.2667 4.63336 45.7333 8.10003 38.8 12.3667Z" fill="black"/>
<path d="M225.733 189.167C204.267 198.367 171.333 207.167 138.667 212.5C134.667 213.167 122.667 215.167 112 217.034C101.333 218.9 84 221.834 73.3333 223.7C39.8667 229.3 23.0667 234.367 24.2667 238.1C24.9333 239.967 31.7333 239.967 47.3333 237.834C52.5333 237.034 63.8667 235.567 72.6667 234.5C118.133 228.634 156 221.967 177.333 216.1C195.2 211.3 226.4 197.034 230.8 191.7C233.333 188.634 230.533 187.167 225.733 189.167Z" fill="black"/>
</svg>
