<svg width="252" height="265" viewBox="0 0 252 265" fill="none" xmlns="http://www.w3.org/2000/svg">
<path d="M120.533 21.2333C105.733 44.3 93.4667 77.9 87.2 112.833C84.9334 124.833 84.9334 164.3 87.2 178.833C92.8 217.1 101.867 249.5 106.933 249.5C108 249.5 112.267 247.1 116.533 244.167C120.667 241.233 124.933 238.833 125.733 238.833C126.667 238.833 131.067 241.233 135.333 244.167C139.6 247.1 143.867 249.5 144.667 249.5C147.867 249.5 155.733 226.833 160 205.233C165.867 176.3 167.6 135.9 164 112.167C161.6 96.5667 159.333 86.8333 154 70.9667C147.2 50.4333 130.667 17.2333 126.267 15.5C125.333 15.1 122.933 17.5 120.533 21.2333Z" fill="black"/>
</svg>
